<?xml version="1.0" ?>
<!DOCTYPE svg  PUBLIC '-//W3C//DTD SVG 1.1//EN'  'http://www.w3.org/Graphics/SVG/1.1/DTD/svg11.dtd'>
<!-- Uploaded to: SVG Repo, www.svgrepo.com, Generator: SVG Repo Mixer Tools -->
<svg width="800px" height="800px" viewBox="0 0 24 24" enable-background="new 0 0 24 24" version="1.1" xml:space="preserve" xmlns="http://www.w3.org/2000/svg" xmlns:xlink="http://www.w3.org/1999/xlink">
<g id="Layer_27"/>
<g id="Layer_2"/>
<g id="Layer_3"/>
<g id="Layer_4"/>
<g id="Layer_5"/>
<g id="Layer_6">
<g>
<path d="M10,17v4c0,0.55-0.45,1-1,1H6c-0.55,0-1-0.45-1-1v-4c0-0.55,0.45-1,1-1h3C9.55,16,10,16.45,10,17z" fill="#D34A4B"/>
</g>
<g>
<path d="M19,17v4c0,0.55-0.45,1-1,1h-3c-0.55,0-1-0.45-1-1v-4c0-0.55,0.45-1,1-1h3C18.55,16,19,16.45,19,17z" fill="#D34A4B"/>
</g>
<g>
<path d="M22,3v14c0,0.55-0.45,1-1,1H3c-0.55,0-1-0.45-1-1V3c0-0.55,0.45-1,1-1h18C21.55,2,22,2.45,22,3z" fill="#B0DA50"/>
</g>
<path d="   M9,6" fill="none" stroke="#000000" stroke-linecap="round" stroke-linejoin="round" stroke-miterlimit="10" stroke-width="2"/>
<g>
<circle cx="7.5" cy="6.5" fill="#346EA1" r="1.5"/>
<path d="M17.4141,13l0.293-0.293c0.3906-0.3906,0.3906-1.0234,0-1.4141s-1.0234-0.3906-1.4141,0L16,11.5859    l-0.293-0.293c-0.3906-0.3906-1.0234-0.3906-1.4141,0s-0.3906,1.0234,0,1.4141L14.5859,13l-0.293,0.293    c-0.3906,0.3906-0.3906,1.0234,0,1.4141C14.4883,14.9023,14.7441,15,15,15s0.5117-0.0977,0.707-0.293L16,14.4141l0.293,0.293    C16.4883,14.9023,16.7441,15,17,15s0.5117-0.0977,0.707-0.293c0.3906-0.3906,0.3906-1.0234,0-1.4141L17.4141,13z" fill="#346EA1"/>
<path d="M15.0049,9.0996C15.0557,9.6133,15.4893,10,15.999,10c0.0273,0,0.0557-0.001,0.084-0.0039    c0.5508-0.0459,0.959-0.5283,0.9131-1.0791C16.8838,7.5625,15.4854,5,11,5c-0.5527,0-1,0.4473-1,1s0.4473,1,1,1    C14.6201,7,14.9756,8.8691,15.0049,9.0996z" fill="#346EA1"/>
</g>
</g>
<g id="Layer_7"/>
<g id="Layer_8"/>
<g id="Layer_9"/>
<g id="Layer_10"/>
<g id="Layer_11"/>
<g id="Layer_12"/>
<g id="Layer_13"/>
<g id="Layer_14"/>
<g id="Layer_15"/>
<g id="Layer_16">
<g id="Layer_17"/>
</g>
<g id="Layer_18"/>
<g id="Layer_19"/>
<g id="Layer_20"/>
<g id="Layer_21"/>
<g id="Layer_22"/>
<g id="Layer_23"/>
<g id="Layer_24"/>
<g id="Layer_25"/>
<g id="Layer_26"/>
</svg>